<?xml version="1.0" encoding="UTF-8"?>
<svg width="72px" height="72px" viewBox="0 0 72 72" version="1.1" xmlns="http://www.w3.org/2000/svg" xmlns:xlink="http://www.w3.org/1999/xlink">
    <!-- Generator: Sketch 52.5 (67469) - http://www.bohemiancoding.com/sketch -->
    <title>xxhdpi/icon/delete</title>
    <desc>Created with Sketch.</desc>
    <g id="icon/delete" stroke="none" stroke-width="1" fill="none" fill-rule="evenodd">
        <path d="M38.2994049,33.4994049 L58.4230047,33.4994049 C60.079859,33.4994049 61.4230047,34.8425506 61.4230047,36.4994049 C61.4230047,38.1562591 60.079859,39.4994049 58.4230047,39.4994049 L38.2994049,39.4994049 L38.2994049,59.6230047 C38.2994049,61.279859 36.9562591,62.6230047 35.2994049,62.6230047 C33.6425506,62.6230047 32.2994049,61.279859 32.2994049,59.6230047 L32.2994049,39.4994049 L12.6,39.4994049 C10.9431458,39.4994049 9.6,38.1562591 9.6,36.4994049 C9.6,34.8425506 10.9431458,33.4994049 12.6,33.4994049 L32.2994049,33.4994049 L32.2994049,13.8 C32.2994049,12.1431458 33.6425506,10.8 35.2994049,10.8 C36.9562591,10.8 38.2994049,12.1431458 38.2994049,13.8 L38.2994049,33.4994049 Z" id="Combined-Shape" fill="#000000" fill-rule="nonzero" transform="translate(35.511502, 36.711502) rotate(-315.000000) translate(-35.511502, -36.711502) "></path>
    </g>
</svg>