<?xml version="1.0" encoding="UTF-8"?>
<svg width="72px" height="72px" viewBox="0 0 72 72" version="1.1" xmlns="http://www.w3.org/2000/svg" xmlns:xlink="http://www.w3.org/1999/xlink">
    <!-- Generator: Sketch 52.5 (67469) - http://www.bohemiancoding.com/sketch -->
    <title>xxhdpi/icon/download</title>
    <desc>Created with Sketch.</desc>
    <g id="icon/download" stroke="none" stroke-width="1" fill="none" fill-rule="evenodd">
        <path d="M33.8503,40.7542816 L33.8503,13.5004 C33.8503,12.1196881 34.9695881,11.0004 36.3503,11.0004 C37.7310119,11.0004 38.8503,12.1196881 38.8503,13.5004 L38.8503,40.7546057 L50.1376271,29.5282519 C51.1165784,28.5545889 52.699485,28.5588759 53.6731481,29.5378271 C54.6468111,30.5167784 54.6425241,32.099685 53.6635729,33.0733481 L38.1135729,48.5393481 C37.1383912,49.5092619 35.562897,49.5092872 34.5876841,48.5394047 L19.0366841,33.0734047 C18.0577015,32.0997732 18.0533637,30.5168667 19.0269953,29.5378841 C20.0006268,28.5589015 21.5835333,28.5545637 22.5625159,29.5281953 L33.8503,40.7542816 Z M58.1037,54.7466 C59.4844119,54.7466 60.6037,55.8658881 60.6037,57.2466 C60.6037,58.6273119 59.4844119,59.7466 58.1037,59.7466 L14.4997,59.7466 C13.1189881,59.7466 11.9997,58.6273119 11.9997,57.2466 C11.9997,55.8658881 13.1189881,54.7466 14.4997,54.7466 L58.1037,54.7466 Z" id="Combined-Shape" fill="#000000" fill-rule="nonzero"></path>
    </g>
</svg>