<?xml version="1.0" encoding="UTF-8"?>
<svg width="72px" height="72px" viewBox="0 0 72 72" version="1.1" xmlns="http://www.w3.org/2000/svg" xmlns:xlink="http://www.w3.org/1999/xlink">
    <!-- Generator: Sketch 52.5 (67469) - http://www.bohemiancoding.com/sketch -->
    <title>xxhdpi/icon/history</title>
    <desc>Created with Sketch.</desc>
    <g id="icon/history" stroke="none" stroke-width="1" fill="none" fill-rule="evenodd">
        <path d="M47.1970563,42.8029437 C48.1343146,43.740202 48.1343146,45.259798 47.1970563,46.1970563 C46.259798,47.1343146 44.740202,47.1343146 43.8029437,46.1970563 L34.8029437,37.1970563 C34.3528564,36.746969 34.1,36.1365196 34.1,35.5 L34.1,22.5 C34.1,21.1745166 35.1745166,20.1 36.5,20.1 C37.8254834,20.1 38.9,21.1745166 38.9,22.5 L38.9,34.5058875 L47.1970563,42.8029437 Z M58,35.5 C58,23.6257119 48.3742881,14 36.5,14 C24.6257119,14 15,23.6257119 15,35.5 C15,47.3742881 24.6257119,57 36.5,57 C48.3742881,57 58,47.3742881 58,35.5 Z M63,35.5 C63,50.1357119 51.1357119,62 36.5,62 C21.8642881,62 10,50.1357119 10,35.5 C10,20.8642881 21.8642881,9 36.5,9 C51.1357119,9 63,20.8642881 63,35.5 Z" id="Stroke-1" fill="#000000" fill-rule="nonzero"></path>
    </g>
</svg>