<?xml version="1.0" encoding="UTF-8"?>
<svg width="72px" height="72px" viewBox="0 0 72 72" version="1.1" xmlns="http://www.w3.org/2000/svg" xmlns:xlink="http://www.w3.org/1999/xlink">
    <!-- Generator: Sketch 52.5 (67469) - http://www.bohemiancoding.com/sketch -->
    <title>xxhdpi/icon/low</title>
    <desc>Created with Sketch.</desc>
    <g id="icon/low" stroke="none" stroke-width="1" fill="none" fill-rule="evenodd">
        <path d="M35.3849,30.5799 L58.7289,30.5799 C59.4319,30.5799 60.1279,30.8719 60.6369,31.4359 C61.1909,32.0519 61.3519,32.9269 61.2019,33.7399 C60.5559,37.2519 57.9949,51.1839 56.9469,56.8859 C56.6849,58.3089 55.4449,59.3369 53.9969,59.3369 L22.5249,59.3369 C20.8679,59.3369 19.5249,57.9939 19.5249,56.3369 L19.5249,31.2789 C19.5249,30.8209 19.6489,30.3719 19.8829,29.9779 C25.9689,19.7549 29.6689,13.9609 30.9829,12.5959 C31.0839,12.4909 31.3629,12.3679 31.6459,12.3689 C31.9289,12.3699 32.2169,12.4969 32.2859,12.5249 C34.2549,13.3359 38.6459,16.7359 35.3849,30.5799 Z M10.2729,33.1239 C10.2729,31.7189 11.4119,30.5799 12.8169,30.5799 L13.0159,30.5799 C14.4209,30.5799 15.5599,31.7189 15.5599,33.1239 L15.5599,56.7939 C15.5599,58.1979 14.4209,59.3369 13.0159,59.3369 L12.8169,59.3369 C11.4119,59.3369 10.2729,58.1979 10.2729,56.7939 L10.2729,33.1239 Z" id="Fill-1" fill="#000000" transform="translate(35.763981, 35.852897) scale(1, -1) translate(-35.763981, -35.852897) "></path>
    </g>
</svg>