<?xml version="1.0" encoding="UTF-8"?>
<svg width="72px" height="72px" viewBox="0 0 72 72" version="1.1" xmlns="http://www.w3.org/2000/svg" xmlns:xlink="http://www.w3.org/1999/xlink">
    <!-- Generator: Sketch 52.5 (67469) - http://www.bohemiancoding.com/sketch -->
    <title>xxhdpi/icon/maximize</title>
    <desc>Created with Sketch.</desc>
    <g id="icon/maximize" stroke="none" stroke-width="1" fill="none" fill-rule="evenodd">
        <path d="M20.5451607,53.2285 L30.0007,53.2285 C31.3814119,53.2285 32.5007,54.3477881 32.5007,55.7285 C32.5007,57.1092119 31.3814119,58.2285 30.0007,58.2285 L14.4997,58.2285 C13.1189881,58.2285 11.9997,57.1092119 11.9997,55.7285 L11.9997,39.9995 C11.9997,38.6187881 13.1189881,37.4995 14.4997,37.4995 C15.8804119,37.4995 16.9997,38.6187881 16.9997,39.9995 L16.9997,49.7029029 L28.7500457,37.9394209 C29.7258109,36.9625649 31.3087231,36.9616806 32.2855791,37.9374457 C33.2624351,38.9132109 33.2633194,40.4961231 32.2875543,41.4729791 L20.5451607,53.2285 Z M49.692326,17 L39.9997,17 C38.6189881,17 37.4997,15.8807119 37.4997,14.5 C37.4997,13.1192881 38.6189881,12 39.9997,12 L55.5007,12 C56.8814119,12 58.0007,13.1192881 58.0007,14.5 L58.0007,30.229 C58.0007,31.6097119 56.8814119,32.729 55.5007,32.729 C54.1199881,32.729 53.0007,31.6097119 53.0007,30.229 L53.0007,20.7629489 L41.4755543,32.3009791 C40.4997891,33.2778351 38.9168769,33.2787194 37.9400209,32.3029543 C36.9631649,31.3271891 36.9622806,29.7442769 37.9380457,28.7674209 L49.692326,17 Z" id="Combined-Shape" fill="#000000" fill-rule="nonzero"></path>
    </g>
</svg>