<?xml version="1.0" encoding="UTF-8"?>
<svg width="72px" height="72px" viewBox="0 0 72 72" version="1.1" xmlns="http://www.w3.org/2000/svg" xmlns:xlink="http://www.w3.org/1999/xlink">
    <!-- Generator: Sketch 52.5 (67469) - http://www.bohemiancoding.com/sketch -->
    <title>xxhdpi/icon/message</title>
    <desc>Created with Sketch.</desc>
    <g id="icon/message" stroke="none" stroke-width="1" fill="none" fill-rule="evenodd">
        <path d="M42.2374,34.958 C40.4284,34.958 38.9624,33.492 38.9624,31.684 C38.9624,29.874 40.4284,28.408 42.2374,28.408 C44.0464,28.408 45.5124,29.874 45.5124,31.684 C45.5124,33.492 44.0464,34.958 42.2374,34.958 M28.9754,34.958 C27.2494,34.958 25.8504,33.56 25.8504,31.833 C25.8504,30.107 27.2494,28.708 28.9754,28.708 C30.7014,28.708 32.1004,30.107 32.1004,31.833 C32.1004,33.56 30.7014,34.958 28.9754,34.958 M58.0194,32.695 C58.0194,20.713 48.1654,11 36.0094,11 C23.8544,11 14.0004,20.713 14.0004,32.695 C14.0004,44.677 23.8544,54.391 36.0094,54.391 L36.0114,54.391 L36.0114,60.407 C36.0114,60.876 36.5314,61.16 36.9234,60.903 C38.4564,59.899 41.7964,57.567 45.9394,53.791 C51.2104,48.987 53.3914,46.006 53.3914,46.006 L53.3864,46.002 C56.2874,42.327 58.0194,37.712 58.0194,32.695" id="Fill-1" fill="#252525"></path>
    </g>
</svg>