<?xml version="1.0" encoding="UTF-8"?>
<svg width="72px" height="72px" viewBox="0 0 72 72" version="1.1" xmlns="http://www.w3.org/2000/svg" xmlns:xlink="http://www.w3.org/1999/xlink">
    <!-- Generator: Sketch 52.5 (67469) - http://www.bohemiancoding.com/sketch -->
    <title>xxhdpi/icon/more</title>
    <desc>Created with Sketch.</desc>
    <g id="icon/more" stroke="none" stroke-width="1" fill="none" fill-rule="evenodd">
        <path d="M38.6101,20.6099 C37.0981,22.1219 34.6461,22.1219 33.1341,20.6099 C31.6221,19.0979 31.6221,16.6469 33.1341,15.1339 C34.6461,13.6219 37.0981,13.6219 38.6101,15.1339 C40.1221,16.6469 40.1221,19.0979 38.6101,20.6099 M38.6101,38.0589 C37.0981,39.5709 34.6461,39.5709 33.1341,38.0589 C31.6221,36.5469 31.6221,34.0949 33.1341,32.5829 C34.6461,31.0699 37.0981,31.0699 38.6101,32.5829 C40.1221,34.0949 40.1221,36.5469 38.6101,38.0589 M38.6101,56.7239 C37.0981,58.2359 34.6461,58.2359 33.1341,56.7239 C31.6221,55.2119 31.6221,52.7599 33.1341,51.2479 C34.6461,49.7359 37.0981,49.7359 38.6101,51.2479 C40.1221,52.7599 40.1221,55.2119 38.6101,56.7239" id="Fill-1" fill="#000000"></path>
    </g>
</svg>