<?xml version="1.0" encoding="UTF-8"?>
<svg width="72px" height="72px" viewBox="0 0 72 72" version="1.1" xmlns="http://www.w3.org/2000/svg" xmlns:xlink="http://www.w3.org/1999/xlink">
    <!-- Generator: Sketch 52.5 (67469) - http://www.bohemiancoding.com/sketch -->
    <title>xxhdpi/icon/phone</title>
    <desc>Created with Sketch.</desc>
    <g id="icon/phone" stroke="none" stroke-width="1" fill="none" fill-rule="evenodd">
        <path d="M27.8836,44.1074 C27.8836,44.1074 27.5036,43.7314 27.3886,43.6154 C20.8276,36.9364 15.6266,28.9434 13.1426,20.9974 C12.7186,19.6394 13.2626,18.1664 14.4656,17.4054 L22.2396,12.4854 C23.5866,11.6334 25.3596,11.9284 26.3586,13.1714 L30.9876,18.9324 C31.8396,19.9924 31.9106,21.4794 31.1646,22.6154 L27.3696,28.3984 C26.6836,29.4434 26.6906,30.7964 27.3696,31.8464 C29.0606,34.4604 30.8016,36.6674 32.7716,38.6434 L32.8146,38.6864 C34.7946,40.6564 37.0046,42.3964 39.6216,44.0864 C40.6706,44.7634 42.0226,44.7704 43.0656,44.0864 L48.8606,40.2904 C49.9956,39.5454 51.4806,39.6174 52.5396,40.4654 L58.3066,45.0914 C59.5516,46.0904 59.8476,47.8664 58.9926,49.2144 L54.0706,56.9794 C53.3096,58.1794 51.8386,58.7224 50.4816,58.2994 C42.5446,55.8244 34.5596,50.6444 27.8836,44.1074" id="Fill-1" fill="#252525"></path>
    </g>
</svg>