<?xml version="1.0" encoding="UTF-8"?>
<svg width="72px" height="72px" viewBox="0 0 72 72" version="1.1" xmlns="http://www.w3.org/2000/svg" xmlns:xlink="http://www.w3.org/1999/xlink">
    <!-- Generator: Sketch 52.5 (67469) - http://www.bohemiancoding.com/sketch -->
    <title>xxhdpi/icon/refresh</title>
    <desc>Created with Sketch.</desc>
    <g id="icon/refresh" stroke="none" stroke-width="1" fill="none" fill-rule="evenodd">
        <path d="M56.3206378,20.5492537 L56.2547136,13.6350354 C56.2415497,12.2543863 57.3501155,11.1244775 58.7307646,11.1113136 C60.1114137,11.0981497 61.2413225,12.2067155 61.2544864,13.5873646 L61.3724864,25.9633646 C61.3856495,27.3439349 60.2772065,28.4738097 58.8966374,28.4870844 L46.5206374,28.6060844 C45.1399893,28.6193599 44.009991,27.5108854 43.9967156,26.1302374 C43.9834401,24.7495893 45.0919146,23.619591 46.4725626,23.6063156 L52.3173818,23.5501154 C48.4788511,18.8286645 42.704544,16 36.448,16 C25.1547119,16 16,25.1547119 16,36.448 C16,47.7412881 25.1547119,56.896 36.448,56.896 C46.5584836,56.896 55.1100304,49.5097516 56.6508382,39.6259016 C56.813603,38.5818687 56.896,37.5205333 56.896,36.448 C56.896,35.0672881 58.0152881,33.948 59.396,33.948 C60.7767119,33.948 61.896,35.0672881 61.896,36.448 C61.896,37.7786753 61.7936122,39.0975073 61.591165,40.3960776 C59.6722272,52.7055258 49.0318092,61.896 36.448,61.896 C22.3932881,61.896 11,50.5027119 11,36.448 C11,22.3932881 22.3932881,11 36.448,11 C44.2994127,11 51.5470914,14.5845837 56.3206378,20.5492537 Z" id="Combined-Shape" fill="#000000" fill-rule="nonzero"></path>
    </g>
</svg>