<?xml version="1.0" encoding="UTF-8"?>
<svg width="72px" height="72px" viewBox="0 0 72 72" version="1.1" xmlns="http://www.w3.org/2000/svg" xmlns:xlink="http://www.w3.org/1999/xlink">
    <!-- Generator: Sketch 52.5 (67469) - http://www.bohemiancoding.com/sketch -->
    <title>xxhdpi/icon/share</title>
    <desc>Created with Sketch.</desc>
    <g id="icon/share" stroke="none" stroke-width="1" fill="none" fill-rule="evenodd">
        <path d="M52.1601623,25.9998 L42.5269,25.9998 C36.1604848,25.9998 30.9999,31.1606389 30.9999,37.5278 L30.9999,43.4998 C30.9999,44.8805119 29.8806119,45.9998 28.4999,45.9998 C27.1191881,45.9998 25.9999,44.8805119 25.9999,43.4998 L25.9999,37.5278 C25.9999,28.3992703 33.3990059,20.9998 42.5269,20.9998 L52.1601623,20.9998 L47.9106025,16.7721246 C46.9317746,15.7983375 46.9276883,14.2154304 47.9014754,13.2366025 C48.8752625,12.2577746 50.4581696,12.2536883 51.4369975,13.2274754 L59.9809975,21.7274754 C60.9634008,22.7048195 60.9634008,24.2947805 59.9809975,25.2721246 L51.4369975,33.7721246 C50.4581696,34.7459117 48.8752625,34.7418254 47.9014754,33.7629975 C46.9276883,32.7841696 46.9317746,31.2012625 47.9106025,30.2274754 L52.1601623,25.9998 Z M16.9999,55.0001 L54.9999,55.0001 L54.9999,42.2181 C54.9999,40.8373881 56.1191881,39.7181 57.4999,39.7181 C58.8806119,39.7181 59.9999,40.8373881 59.9999,42.2181 L59.9999,57.5001 C59.9999,58.8808119 58.8806119,60.0001 57.4999,60.0001 L14.4999,60.0001 C13.1191881,60.0001 11.9999,58.8808119 11.9999,57.5001 L11.9999,14.5001 C11.9999,13.1193881 13.1191881,12.0001 14.4999,12.0001 L27.4999,12.0001 C28.8806119,12.0001 29.9999,13.1193881 29.9999,14.5001 C29.9999,15.8808119 28.8806119,17.0001 27.4999,17.0001 L16.9999,17.0001 L16.9999,55.0001 Z" id="Combined-Shape" fill="#000000" fill-rule="nonzero"></path>
    </g>
</svg>