<?xml version="1.0" encoding="UTF-8"?>
<svg width="72px" height="72px" viewBox="0 0 72 72" version="1.1" xmlns="http://www.w3.org/2000/svg" xmlns:xlink="http://www.w3.org/1999/xlink">
    <!-- Generator: Sketch 52.5 (67469) - http://www.bohemiancoding.com/sketch -->
    <title>xxhdpi/icon/silent</title>
    <desc>Created with Sketch.</desc>
    <g id="icon/silent" stroke="none" stroke-width="1" fill="none" fill-rule="evenodd">
        <path d="M55.480263,35.6170721 L62.3450593,45.4090873 C63.1376501,46.539647 62.8636723,48.0986684 61.7331127,48.8912593 C60.602553,49.6838501 59.0435316,49.4098723 58.2509407,48.2793127 L52.4659152,40.0274935 L46.2994895,49.0498549 C45.5204064,50.1897648 43.9647551,50.4822727 42.8248451,49.7031895 C41.6849352,48.9241064 41.3924273,47.3684551 42.1715105,46.2285451 L49.399305,35.6532495 L42.1889407,25.3683127 C41.3963499,24.237753 41.6703277,22.6787316 42.8008873,21.8861407 C43.931447,21.0935499 45.4904684,21.3675277 46.2830593,22.4980873 L52.4136527,31.2428282 L58.2335105,22.7275451 C59.0125936,21.5876352 60.5682449,21.2951273 61.7081549,22.0742105 C62.8480648,22.8532936 63.1405727,24.4089449 62.3614895,25.5488549 L55.480263,35.6170721 Z M19.2402611,24.0286 L31.9592354,10.768996 C33.5184618,9.14349352 36.2634,10.247169 36.2634,12.4996 L36.2634,58.9376 C36.2634,61.1904906 33.5175092,62.2939453 31.9585803,60.6675207 L18.6077017,46.7386 L11.8494,46.7386 C10.2756881,46.7386 9.0004,45.4633119 9.0004,43.8896 L9.0004,26.8796 C9.0004,25.3099019 10.2716328,24.0286 11.8494,24.0286 L19.2402611,24.0286 Z M22.1105646,28.259204 C21.6390887,28.7507203 20.9874858,29.0286 20.3064,29.0286 L14.0004,29.0286 L14.0004,41.7386 L19.6744,41.7386 C20.3558145,41.7386 21.0077025,42.0167471 21.4792197,42.5086793 L31.2634,52.7164773 L31.2634,18.7173204 L22.1105646,28.259204 Z" id="Stroke-1" fill="#000000" fill-rule="nonzero"></path>
    </g>
</svg>