<?xml version="1.0" encoding="UTF-8"?>
<svg width="72px" height="72px" viewBox="0 0 72 72" version="1.1" xmlns="http://www.w3.org/2000/svg" xmlns:xlink="http://www.w3.org/1999/xlink">
    <!-- Generator: Sketch 52.5 (67469) - http://www.bohemiancoding.com/sketch -->
    <title>xxhdpi/icon/sound</title>
    <desc>Created with Sketch.</desc>
    <g id="icon/sound" stroke="none" stroke-width="1" fill="none" fill-rule="evenodd">
        <path d="M19.2412062,24.0286 L31.9591712,10.769063 C33.5183684,9.14347009 36.2634,10.2471239 36.2634,12.4996 L36.2634,58.9376 C36.2634,61.1904906 33.5175092,62.2939453 31.9585803,60.6675207 L18.6077017,46.7386 L11.8504,46.7386 C10.2787042,46.7386 9.0004,45.4653384 9.0004,43.8896 L9.0004,26.8796 C9.0004,25.3078963 10.2746696,24.0286 11.8504,24.0286 L19.2412062,24.0286 Z M54.7716071,52.4349749 C53.742604,53.3555823 52.1621325,53.2677102 51.2415251,52.2387071 C50.3209177,51.209704 50.4087898,49.6292325 51.4377929,48.7086251 C55.1270403,45.4080049 57.2707,40.7394617 57.2707,35.7188 C57.2707,30.6981558 55.1260872,26.0288193 51.4362733,22.7294046 C50.4070329,21.8090625 50.3187534,20.2286137 51.2390954,19.1993733 C52.1594375,18.1701329 53.7398863,18.0818534 54.7691267,19.0021954 C59.5065391,23.238368 62.2707,29.2566091 62.2707,35.7188 C62.2707,42.1806053 59.5078455,48.1976543 54.7716071,52.4349749 Z M44.6461896,46.0454763 C43.4439893,46.7245047 41.918952,46.30039 41.2399237,45.0981896 C40.5608953,43.8959893 40.98501,42.370952 42.1872104,41.6919237 C44.3605173,40.4643936 45.7207,38.2138692 45.7207,35.7197 C45.7207,33.2239934 44.3599709,30.9732935 42.1842853,29.7445186 C40.9820615,29.0655316 40.5578943,27.540509 41.2368814,26.3382853 C41.9158684,25.1360615 43.440891,24.7118943 44.6431147,25.3908814 C48.3639862,27.4923399 50.7207,31.390438 50.7207,35.7197 C50.7207,40.0471094 48.3647971,43.9451276 44.6461896,46.0454763 Z M22.1116288,28.259137 C21.6401489,28.7506941 20.988518,29.0286 20.3074,29.0286 L14.0004,29.0286 L14.0004,41.7386 L19.6744,41.7386 C20.3558145,41.7386 21.0077025,42.0167471 21.4792197,42.5086793 L31.2634,52.7164773 L31.2634,18.7176538 L22.1116288,28.259137 Z" id="Stroke-1" fill="#000000" fill-rule="nonzero"></path>
    </g>
</svg>