<?xml version="1.0" encoding="UTF-8"?>
<svg width="72px" height="72px" viewBox="0 0 72 72" version="1.1" xmlns="http://www.w3.org/2000/svg" xmlns:xlink="http://www.w3.org/1999/xlink">
    <!-- Generator: Sketch 52.5 (67469) - http://www.bohemiancoding.com/sketch -->
    <title>xxhdpi/icon/unlock</title>
    <desc>Created with Sketch.</desc>
    <g id="icon/unlock" stroke="none" stroke-width="1" fill="none" fill-rule="evenodd">
        <g id="Group-10" transform="translate(14.000000, 10.000000)" fill="#000000" fill-rule="nonzero">
            <path d="M38.553,26.5 L5.5,26.5 L5.5,45.285 L38.553,45.285 L38.553,26.5 Z M7.5,21.5 L7.5,14.939 C7.5,6.96447514 13.9641011,0.5 21.938,0.5 C28.5457872,0.5 34.2612643,4.97411611 35.9087825,11.2789468 C36.2578558,12.6148035 35.4579098,13.9807092 34.1220532,14.3297825 C32.7861965,14.6788558 31.4202908,13.8789098 31.0712175,12.5430532 C29.9953766,8.4259544 26.2576046,5.5 21.938,5.5 C16.7255896,5.5 12.5,9.72583413 12.5,14.939 L12.5,21.5 L40.724,21.5 C42.2867119,21.5 43.553,22.7662881 43.553,24.329 L43.553,47.455 C43.553,49.0168871 42.2875401,50.285 40.723,50.285 L3.329,50.285 C1.76811566,50.285 0.5,49.0195429 0.5,47.456 L0.5,24.329 C0.5,22.7654571 1.76811566,21.5 3.329,21.5 L7.5,21.5 Z" id="Combined-Shape"></path>
        </g>
    </g>
</svg>