<?xml version="1.0" encoding="UTF-8"?>
<svg width="72px" height="72px" viewBox="0 0 72 72" version="1.1" xmlns="http://www.w3.org/2000/svg" xmlns:xlink="http://www.w3.org/1999/xlink">
    <!-- Generator: Sketch 52.5 (67469) - http://www.bohemiancoding.com/sketch -->
    <title>xxhdpi/icon/delete-circle</title>
    <desc>Created with Sketch.</desc>
    <g id="icon/delete-circle" stroke="none" stroke-width="1" fill="none" fill-rule="evenodd">
        <path d="M32.6058875,37.2 L24.7029437,45.1029437 C23.7656854,46.040202 23.7656854,47.559798 24.7029437,48.4970563 C25.640202,49.4343146 27.159798,49.4343146 28.0970563,48.4970563 L36,40.5941125 L43.9029437,48.4970563 C44.840202,49.4343146 46.359798,49.4343146 47.2970563,48.4970563 C48.2343146,47.559798 48.2343146,46.040202 47.2970563,45.1029437 L39.3941125,37.2 L47.2970563,29.2970563 C48.2343146,28.359798 48.2343146,26.840202 47.2970563,25.9029437 C46.359798,24.9656854 44.840202,24.9656854 43.9029437,25.9029437 L36,33.8058875 L28.0970563,25.9029437 C27.159798,24.9656854 25.640202,24.9656854 24.7029437,25.9029437 C23.7656854,26.840202 23.7656854,28.359798 24.7029437,29.2970563 L32.6058875,37.2 Z M36,62.4 C22.0824243,62.4 10.8,51.1175757 10.8,37.2 C10.8,23.2824243 22.0824243,12 36,12 C49.9175757,12 61.2,23.2824243 61.2,37.2 C61.2,51.1175757 49.9175757,62.4 36,62.4 Z" id="Combined-Shape" fill="#000000"></path>
    </g>
</svg>