<?xml version="1.0" standalone="no"?>
<!DOCTYPE svg PUBLIC "-//W3C//DTD SVG 1.1//EN" "http://www.w3.org/Graphics/SVG/1.1/DTD/svg11.dtd" >
<!--
2013-9-30: Created.
-->
<svg>
<metadata>
Created by iconfont
</metadata>
<defs>

<font id="vui-iconfont" horiz-adv-x="1024" >
  <font-face
    font-family="vui-iconfont"
    font-weight="500"
    font-stretch="normal"
    units-per-em="1024"
    ascent="896"
    descent="-128"
  />
    <missing-glyph />
    
    <glyph glyph-name="commentaries" unicode="&#58900;" d="M348.444444 497.777778a21.333333 21.333333 0 1 0 0 42.666666h341.333334a21.333333 21.333333 0 1 0 0-42.666666h-341.333334z m0-142.222222a21.333333 21.333333 0 1 0 0 42.666666h170.666667a21.333333 21.333333 0 1 0 0-42.666666h-170.666667zM227.555556 682.666667a42.666667 42.666667 0 0 1-42.666667-42.666667V104.647111a14.222222 14.222222 0 0 1 23.281778-10.951111L335.687111 199.111111H810.666667a42.666667 42.666667 0 0 1 42.666666 42.666667V640a42.666667 42.666667 0 0 1-42.666666 42.666667H227.555556z"  horiz-adv-x="1024" />

    
    <glyph glyph-name="back" unicode="&#58901;" d="M693.290667 678.926222a35.555556 35.555556 0 1 1-50.432 50.147556L337.450667 421.973333a35.555556 35.555556 0 0 1 0-50.147555l305.408-307.072a35.555556 35.555556 0 1 1 50.432 50.147555L412.814222 396.913778l280.462222 282.026666z"  horiz-adv-x="1024" />

    
    <glyph glyph-name="delete-circle" unicode="&#58902;" d="M463.729778 366.933333l-112.398222-112.398222a34.133333 34.133333 0 0 1 48.270222-48.270222L512 318.663111l112.398222-112.398222a34.133333 34.133333 0 0 1 48.270222 48.270222L560.270222 366.933333l112.398222 112.398223a34.133333 34.133333 0 0 1-48.270222 48.270222L512 415.203556l-112.398222 112.398222a34.133333 34.133333 0 0 1-48.270222-48.270222l112.398222-112.398223zM512 8.533333c-197.944889 0-358.4 160.455111-358.4 358.4S314.055111 725.333333 512 725.333333s358.4-160.455111 358.4-358.4S709.944889 8.533333 512 8.533333z"  horiz-adv-x="1024" />

    
    <glyph glyph-name="delete" unicode="&#58903;" d="M565.390222 378.140444l202.382222-202.382222a42.666667 42.666667 0 1 0-60.344888-60.330666l-202.382223 202.382222-202.368-202.382222a42.666667 42.666667 0 1 0-60.344889 60.344888l202.382223 202.382223-198.115556 198.101333a42.666667 42.666667 0 0 0 60.344889 60.344889l198.115556-198.115556 198.115555 198.115556a42.666667 42.666667 0 1 0 60.330667-60.344889l-198.115556-198.115556z"  horiz-adv-x="1024" />

    
    <glyph glyph-name="good" unicode="&#58904;" d="M503.253333 461.084444h332.003556c9.998222 0 19.896889-4.152889 27.136-12.174222 7.879111-8.760889 10.168889-21.191111 8.035555-32.768l-60.515555-329.187555a42.581333 42.581333 0 0 0-41.955556-34.844445H320.355556a42.666667 42.666667 0 0 0-42.666667 42.666667V451.128889c0 6.513778 1.763556 12.899556 5.091555 18.503111 86.556444 145.393778 139.178667 227.797333 157.866667 247.210667 1.422222 1.493333 5.404444 3.242667 9.429333 3.228444 4.024889 0 8.106667-1.820444 9.102223-2.218667 28.003556-11.52 90.453333-59.875556 44.074666-256.782222z m-357.148444-36.181333a36.181333 36.181333 0 0 0 36.181333 36.181333h2.830222a36.181333 36.181333 0 0 0 36.181334-36.181333v-336.64a36.181333 36.181333 0 0 0-36.181334-36.167111h-2.844444a36.181333 36.181333 0 0 0-36.167111 36.167111v336.64z"  horiz-adv-x="1024" />

    
    <glyph glyph-name="history" unicode="&#58905;" d="M671.246222 287.246222a34.133333 34.133333 0 0 0-48.270222-48.270222l-128 128A34.133333 34.133333 0 0 0 484.977778 391.111111v184.888889a34.133333 34.133333 0 1 0 68.266666 0v-170.752l118.001778-118.001778zM824.888889 391.111111C824.888889 559.985778 687.985778 696.888889 519.111111 696.888889S213.333333 559.985778 213.333333 391.111111 350.236444 85.333333 519.111111 85.333333 824.888889 222.236444 824.888889 391.111111z m71.111111 0C896 182.954667 727.267556 14.222222 519.111111 14.222222S142.222222 182.954667 142.222222 391.111111 310.954667 768 519.111111 768 896 599.267556 896 391.111111z"  horiz-adv-x="1024" />

    
    <glyph glyph-name="download" unicode="&#58906;" d="M481.422222 316.387556V704a35.555556 35.555556 0 1 0 71.111111 0v-387.626667l160.540445 159.672889a35.555556 35.555556 0 0 0 50.147555-50.417778L542.065778 205.653333a35.555556 35.555556 0 0 0-50.147556 0L270.748444 425.628444a35.555556 35.555556 0 1 0 50.147556 50.417778L481.422222 316.387556z m344.945778-199.011556a35.555556 35.555556 0 1 0 0-71.111111H206.222222a35.555556 35.555556 0 1 0 0 71.111111h620.145778z"  horiz-adv-x="1024" />

    
    <glyph glyph-name="loading" unicode="&#58907;" d="M753.365333 625.365333m-85.333333 0a85.333333 85.333333 0 1 1 170.666667 0 85.333333 85.333333 0 1 1-170.666667 0ZM853.333333 384m-85.333333 0a85.333333 85.333333 0 1 1 170.666667 0 85.333333 85.333333 0 1 1-170.666667 0ZM753.365333 142.634667m-85.333333 0a85.333333 85.333333 0 1 1 170.666667 0 85.333333 85.333333 0 1 1-170.666667 0ZM512 42.666667m-85.333333 0a85.333333 85.333333 0 1 1 170.666666 0 85.333333 85.333333 0 1 1-170.666666 0ZM270.634667 142.634667m-85.333334 0a85.333333 85.333333 0 1 1 170.666667 0 85.333333 85.333333 0 1 1-170.666667 0ZM170.666667 384m-85.333334 0a85.333333 85.333333 0 1 1 170.666667 0 85.333333 85.333333 0 1 1-170.666667 0ZM270.634667 625.365333m-85.333334 0a85.333333 85.333333 0 1 1 170.666667 0 85.333333 85.333333 0 1 1-170.666667 0ZM512 725.333333m-85.333333 0a85.333333 85.333333 0 1 1 170.666666 0 85.333333 85.333333 0 1 1-170.666666 0Z"  horiz-adv-x="1024" />

    
    <glyph glyph-name="lock" unicode="&#58908;" d="M747.420444 391.111111H277.333333v-267.164444h470.087111V391.111111z m-441.642666 71.111111v93.312C305.777778 668.956444 397.710222 760.888889 511.118222 760.888889c113.422222 0 205.368889-91.932444 205.368889-205.354667V462.222222h61.809778a40.234667 40.234667 0 0 0 40.234667-40.234666v-328.903112a40.248889 40.248889 0 0 0-40.248889-40.248888H246.456889a40.248889 40.248889 0 0 0-40.234667 40.234666V421.987556a40.248889 40.248889 0 0 0 40.234667 40.234666H305.777778z m71.111111 0h268.487111v93.312c0 74.140444-60.103111 134.243556-134.257778 134.243556-74.126222 0-134.229333-60.103111-134.229333-134.243556V462.222222z m99.555555-177.777778v-44.316444a35.555556 35.555556 0 1 1 71.111112 0V284.444444a35.555556 35.555556 0 1 1-71.111112 0z"  horiz-adv-x="1024" />

    
    <glyph glyph-name="maximize" unicode="&#58909;" d="M292.195556 138.979556h134.485333a35.555556 35.555556 0 1 0 0-71.111112H206.222222a35.555556 35.555556 0 0 0-35.555555 35.555556V327.111111a35.555556 35.555556 0 1 0 71.111111 0v-138.012444l167.111111 167.310222a35.555556 35.555556 0 0 0 50.318222-50.261333L292.195556 138.979556zM706.730667 654.222222H568.888889a35.555556 35.555556 0 1 0 0 71.111111h220.444444a35.555556 35.555556 0 0 0 35.555556-35.555555v-223.701334a35.555556 35.555556 0 1 0-71.111111 0v134.627556L589.895111 436.622222a35.555556 35.555556 0 0 0-50.318222 50.261334L706.730667 654.222222z"  horiz-adv-x="1024" />

    
    <glyph glyph-name="like" unicode="&#58910;" d="M633.116444 232.177778c65.692444 65.678222 116.280889 119.68 143.601778 154.567111 52.693333 67.271111 52.209778 154.865778-2.104889 209.194667-56.362667 56.362667-147.626667 58.88-199.111111 6.172444-1.991111-2.033778-4.053333-4.280889-6.172444-6.684444a275.427556 275.427556 0 0 1-18.318222-23.409778 35.555556 35.555556 0 0 0-58.638223 0 274.616889 274.616889 0 0 1-18.318222 23.395555c-2.119111 2.417778-4.181333 4.650667-6.172444 6.684445-51.484444 52.721778-142.748444 50.204444-199.111111-6.158222-54.328889-54.328889-54.812444-141.909333-2.104889-209.194667 27.320889-34.887111 77.909333-88.888889 143.601777-154.567111a6636.657778 6636.657778 0 0 1 111.431112-108.714667 6636.615111 6636.615111 0 0 1 111.416888 108.714667z m-108.501333 419.612444c79.943111 81.848889 216.647111 78.08 300.273778-5.575111 81.009778-81.024 81.706667-208.952889 7.822222-303.317333-29.639111-37.831111-81.664-93.354667-149.304889-160.995556a6742.357333 6742.357333 0 0 0-128.924444-125.368889 47.587556 47.587556 0 0 0-65.564445-0.028444 6743.04 6743.04 0 0 0-128.938666 125.383111c-67.640889 67.655111-119.665778 123.164444-149.304889 161.009778-73.898667 94.350222-73.201778 222.293333 7.822222 303.331555 83.626667 83.626667 220.330667 87.409778 300.259556 5.546667 0.981333-0.995556 1.948444-2.005333 2.929777-3.057778 0.981333 1.052444 1.948444 2.062222 2.929778 3.072z"  horiz-adv-x="1024" />

    
    <glyph glyph-name="minimization" unicode="&#58911;" d="M338.204444 284.444444H220.444444a35.555556 35.555556 0 1 0 0 71.111112H440.888889a35.555556 35.555556 0 0 0 35.555555-35.555556v-223.701333a35.555556 35.555556 0 1 0-71.111111 0v154.737777L231.381333 76.885333a35.555556 35.555556 0 1 0-50.318222 50.261334L338.204444 284.444444z m303.672889 202.965334H782.222222a35.555556 35.555556 0 1 0 0-71.111111H561.777778a35.555556 35.555556 0 0 0-35.555556 35.555555V675.555556a35.555556 35.555556 0 1 0 71.111111 0v-132.124445l171.278223 171.477333a35.555556 35.555556 0 1 0 50.318222-50.261333L641.848889 487.409778z"  horiz-adv-x="1024" />

    
    <glyph glyph-name="message" unicode="&#58912;" d="M600.704 398.819556a46.563556 46.563556 0 1 0 0 93.141333 46.563556 46.563556 0 0 0 0-93.141333m-188.615111 0a44.430222 44.430222 0 1 0 0 88.888888 44.444444 44.444444 0 1 0 0-88.888888m413.070222 32.184888C825.173333 601.415111 685.013333 739.555556 512.142222 739.555556 339.256889 739.555556 199.111111 601.415111 199.111111 431.004444c0-170.410667 140.145778-308.565333 313.031111-308.565333h0.014222v-85.560889c0-6.670222 7.395556-10.709333 12.970667-7.054222 21.802667 14.279111 69.304889 47.445333 128.227556 101.148444 74.965333 68.323556 105.984 110.72 105.984 110.72l-0.071111 0.056889c41.258667 52.266667 65.891556 117.902222 65.891555 189.255111"  horiz-adv-x="1024" />

    
    <glyph glyph-name="more" unicode="&#58913;" d="M549.12 602.88a55.068444 55.068444 0 1 0-77.880889 77.895111 55.068444 55.068444 0 0 0 77.880889-77.895111m0-248.163556a55.068444 55.068444 0 1 0-77.880889 77.895112 55.068444 55.068444 0 0 0 77.880889-77.895112m0-265.457777a55.068444 55.068444 0 1 0-77.880889 77.895111 55.068444 55.068444 0 0 0 77.880889-77.895111"  horiz-adv-x="1024" />

    
    <glyph glyph-name="read" unicode="&#58914;" d="M512 156.444444c-180.664889 0-327.111111 101.873778-327.111111 220.657778C184.888889 509.681778 331.335111 611.555556 512 611.555556s327.111111-101.873778 327.111111-234.453334C839.111111 258.318222 692.664889 156.444444 512 156.444444z m0 128a99.555556 99.555556 0 1 1 0 199.111112 99.555556 99.555556 0 0 1 0-199.111112z"  horiz-adv-x="1024" />

    
    <glyph glyph-name="refresh" unicode="&#58915;" d="M800.995556 603.733333l-0.924445 98.346667a35.555556 35.555556 0 0 0 71.111111 0.682667l1.664-176.014223a35.555556 35.555556 0 0 0-35.2-35.896888l-176.014222-1.706667a35.555556 35.555556 0 1 0-0.682667 71.111111l83.114667 0.810667A290.261333 290.261333 0 0 1 518.371556 668.444444C357.76 668.444444 227.555556 538.24 227.555556 377.628444c0-160.611556 130.204444-290.816 290.816-290.816 143.786667 0 265.415111 105.045333 287.331555 245.617778a293.262222 293.262222 0 0 1 3.484445 45.198222 35.555556 35.555556 0 1 0 71.111111 0c0-18.915556-1.450667-37.688889-4.337778-56.149333-27.292444-175.075556-178.631111-305.777778-357.589333-305.777778C318.478222 15.701333 156.444444 177.735111 156.444444 377.628444S318.478222 739.555556 518.371556 739.555556c111.658667 0 214.755556-50.986667 282.638222-135.822223z"  horiz-adv-x="1024" />

    
    <glyph glyph-name="scan" unicode="&#58916;" d="M647.111111 711.111111h142.222222c33.024 0 64-29.056 64-64v-99.555555a35.555556 35.555556 0 1 0-71.111111 0V625.777778a14.222222 14.222222 0 0 1-14.222222 14.222222H270.222222a14.222222 14.222222 0 0 1-14.222222-14.222222v-78.222222a35.555556 35.555556 0 1 0-71.111111 0v99.555555c0 37.859556 30.421333 64 64 64h398.222222z m7.111111-598.044444c2.304 0.469333 4.679111 0.711111 7.111111 0.711111H768a14.222222 14.222222 0 0 1 14.222222 14.222222v92.444444a35.555556 35.555556 0 1 0 71.111111 0v-99.555555c0-42.638222-25.059556-78.222222-64-78.222222h-128c-2.432 0-4.807111 0.241778-7.111111 0.711111-2.304-0.469333-4.679111-0.711111-7.111111-0.711111h-398.222222c-27.946667 0-64 26.965333-64 64v113.777777a35.555556 35.555556 0 1 0 71.111111 0V128a14.222222 14.222222 0 0 1 14.222222-14.222222h376.888889c2.432 0 4.807111-0.241778 7.111111-0.711111zM220.444444 341.333333a35.555556 35.555556 0 1 0 0 71.111111h597.333334a35.555556 35.555556 0 1 0 0-71.111111h-597.333334z"  horiz-adv-x="1024" />

    
    <glyph glyph-name="phone" unicode="&#58917;" d="M396.572444 268.700444s-5.404444 5.347556-7.04 6.997334c-93.312 94.990222-167.281778 208.668444-202.609777 321.678222a44.700444 44.700444 0 0 0 18.816 51.086222l110.563555 69.973334a44.586667 44.586667 0 0 0 58.581334-9.756445l65.834666-81.934222a44.558222 44.558222 0 0 0 2.517334-52.380445l-53.973334-82.247111a44.942222 44.942222 0 0 1 0-49.038222c24.035556-37.176889 48.810667-68.565333 76.828445-96.668444l0.611555-0.611556c28.16-28.017778 59.591111-52.764444 96.810667-76.8a44.942222 44.942222 0 0 1 48.981333 0l82.417778 53.987556a44.572444 44.572444 0 0 0 52.323556-2.488889l82.019555-65.792a44.586667 44.586667 0 0 0 9.756445-58.638222L768.995556 85.617778a44.700444 44.700444 0 0 0-51.057778-18.773334c-112.867556 35.2-226.432 108.871111-321.379556 201.841778"  horiz-adv-x="1024" />

    
    <glyph glyph-name="search" unicode="&#58918;" d="M683.036444 285.653333l121.784889-121.784889a42.666667 42.666667 0 1 0-60.344889-60.330666l-119.708444 119.708444A254.876444 254.876444 0 0 0 469.333333 170.666667c-141.383111 0-256 114.616889-256 256s114.616889 256 256 256 256-114.616889 256-256c0-52.110222-15.559111-100.565333-42.296889-141.013334zM469.333333 256c94.250667 0 170.666667 76.416 170.666667 170.666667s-76.416 170.666667-170.666667 170.666666-170.666667-76.416-170.666666-170.666666 76.416-170.666667 170.666666-170.666667z"  horiz-adv-x="1024" />

    
    <glyph glyph-name="setting" unicode="&#58919;" d="M856.376889 494.961778a35.555556 35.555556 0 0 0 24.718222-26.88 382.008889 382.008889 0 0 0 0-154.936889 35.555556 35.555556 0 0 0-24.718222-26.88 120.817778 120.817778 0 0 1-70.769778-55.608889 120.96 120.96 0 0 1-12.814222-89.045333 35.555556 35.555556 0 0 0-10.894222-34.773334 379.847111 379.847111 0 0 0-134.257778-77.596444 35.555556 35.555556 0 0 0-35.598222 7.964444 120.832 120.832 0 0 1-83.527111 33.450667 120.888889 120.888889 0 0 1-83.541334-33.450667 35.555556 35.555556 0 0 0-35.598222-7.964444 379.975111 379.975111 0 0 0-134.257778 77.596444 35.555556 35.555556 0 0 0-10.894222 34.773334 120.931556 120.931556 0 0 1-12.8 89.031111 120.888889 120.888889 0 0 1-70.784 55.608889 35.555556 35.555556 0 0 0-24.718222 26.894222 382.008889 382.008889 0 0 0 0 154.922667 35.555556 35.555556 0 0 0 24.718222 26.88 120.96 120.96 0 0 1 70.784 55.651555 120.917333 120.917333 0 0 1 12.8 89.016889 35.555556 35.555556 0 0 0 10.894222 34.773333 379.975111 379.975111 0 0 0 134.257778 77.596445 35.555556 35.555556 0 0 0 35.598222-7.964445 120.860444 120.860444 0 0 1 83.541334-33.436444 120.888889 120.888889 0 0 1 83.541333 33.436444 35.555556 35.555556 0 0 0 35.598222 7.964445 379.918222 379.918222 0 0 0 134.243556-77.596445 35.555556 35.555556 0 0 0 10.88-34.773333 120.917333 120.917333 0 0 1 12.828444-89.016889 120.903111 120.903111 0 0 1 70.769778-55.637333z m-132.352 20.081778a191.701333 191.701333 0 0 0-24.376889 118.798222 308.764444 308.764444 0 0 1-76.003556 43.946666 191.644444 191.644444 0 0 0-115.128888-38.314666c-42.183111 0-82.247111 13.710222-115.128889 38.314666a308.835556 308.835556 0 0 1-76.003556-43.946666 191.687111 191.687111 0 0 0-24.376889-118.812445 191.729778 191.729778 0 0 0-90.794666-80.540444 311.338667 311.338667 0 0 1 0-87.751111 191.687111 191.687111 0 0 0 90.794666-80.540445 191.672889 191.672889 0 0 0 24.362667-118.812444 308.835556 308.835556 0 0 1 76.017778-43.946667 191.630222 191.630222 0 0 0 115.128889 38.328889c42.168889 0 82.232889-13.724444 115.114666-38.328889a308.693333 308.693333 0 0 1 76.017778 43.946667 191.715556 191.715556 0 0 0 24.376889 118.812444 191.587556 191.587556 0 0 0 90.780444 80.540445 311.338667 311.338667 0 0 1 0 87.751111 191.658667 191.658667 0 0 0-90.780444 80.554667z m-150.200889-124.430223a65.308444 65.308444 0 1 1-130.631111 0 65.322667 65.322667 0 0 1 130.631111 0z m71.111111 0a136.419556 136.419556 0 0 0-136.419555-136.419555c-75.349333 0-136.433778 61.070222-136.433778 136.419555 0 75.349333 61.084444 136.419556 136.433778 136.419556a136.419556 136.419556 0 0 0 136.419555-136.419556z"  horiz-adv-x="1024" />

    
    <glyph glyph-name="share" unicode="&#58920;" d="M741.831111 526.222222h-137.002667C514.275556 526.222222 440.888889 452.835556 440.888889 362.268444V277.333333a35.555556 35.555556 0 1 0-71.111111 0v84.935111C369.777778 492.103111 475.008 597.333333 604.828444 597.333333h137.002667l-60.444444 60.131556a35.555556 35.555556 0 1 0 50.161777 50.417778l121.514667-120.888889a35.555556 35.555556 0 0 0 0-50.417778l-121.514667-120.888889a35.555556 35.555556 0 1 0-50.147555 50.417778L741.831111 526.222222zM241.777778 113.777778h540.444444V295.566222a35.555556 35.555556 0 1 0 71.111111 0V78.222222a35.555556 35.555556 0 0 0-35.555555-35.555555h-611.555556a35.555556 35.555556 0 0 0-35.555555 35.555555v611.555556a35.555556 35.555556 0 0 0 35.555555 35.555555h184.888889a35.555556 35.555556 0 1 0 0-71.111111H241.777778v-540.444444z"  horiz-adv-x="1024" />

    
    <glyph glyph-name="sound" unicode="&#58921;" d="M273.649778 554.254222l180.878222 188.586667c22.186667 23.125333 61.212444 7.424 61.212444-24.604445v-660.465777c0-32.028444-39.04-47.729778-61.212444-24.604445l-189.880889 198.115556H168.533333A40.533333 40.533333 0 0 0 128 271.786667V513.706667a40.547556 40.547556 0 0 0 40.533333 40.547555h105.116445z m505.315555-403.996444a35.555556 35.555556 0 1 0-47.402666 52.992c52.465778 46.947556 82.958222 113.351111 82.958222 184.746666 0 71.395556-30.506667 137.813333-82.986667 184.746667a35.555556 35.555556 0 0 0 47.402667 53.006222c67.384889-60.245333 106.695111-145.848889 106.695111-237.752889 0-91.904-39.296-177.479111-106.666667-237.738666z m-144 90.88a35.555556 35.555556 0 1 0-34.972444 61.909333c30.919111 17.464889 50.261333 49.464889 50.261333 84.935111 0 35.498667-19.356444 67.512889-50.304 84.977778a35.555556 35.555556 0 1 0 34.986667 61.923556c52.906667-29.880889 86.428444-85.333333 86.428444-146.901334 0-61.539556-33.507556-116.977778-86.4-146.844444zM314.481778 494.08a35.555556 35.555556 0 0 0-25.671111-10.951111H199.111111v-180.764445h80.696889a35.555556 35.555556 0 0 0 25.671111-10.951111l139.150222-145.166222V629.788444l-130.147555-135.694222z"  horiz-adv-x="1024" />

    
    <glyph glyph-name="unlock" unicode="&#58922;" d="M747.420444 376.888889H277.333333v-267.164445h470.087111V376.888889z m-441.642666 71.111111v93.312c0 113.422222 91.932444 205.354667 205.340444 205.354667a205.397333 205.397333 0 0 0 198.684445-153.301334 35.555556 35.555556 0 0 0-68.792889-17.976889 134.300444 134.300444 0 0 1-129.891556 100.167112c-74.126222 0-134.229333-60.103111-134.229333-134.243556V448h401.408a40.234667 40.234667 0 0 0 40.234667-40.234667v-328.903111a40.248889 40.248889 0 0 0-40.248889-40.248889H246.456889a40.248889 40.248889 0 0 0-40.234667 40.234667V407.765333a40.248889 40.248889 0 0 0 40.234667 40.234667H305.777778z"  horiz-adv-x="1024" />

    
    <glyph glyph-name="silent" unicode="&#58923;" d="M789.048889 389.447111l97.635555-139.264a35.555556 35.555556 0 0 0-58.225777-40.817778l-82.275556 117.361778-87.708444-128.327111a35.555556 35.555556 0 1 0-58.695111 40.120889l102.784 150.414222-102.542223 146.275556a35.555556 35.555556 0 0 0 58.225778 40.817777l87.182222-124.373333 82.773334 121.102222a35.555556 35.555556 0 1 0 58.709333-40.106666l-97.848889-143.217778zM273.635556 554.24l180.906666 188.586667c22.158222 23.125333 61.198222 7.424 61.198222-24.604445v-660.465778c0-32.028444-39.04-47.729778-61.212444-24.604444l-189.880889 198.115556h-96.128A40.519111 40.519111 0 0 0 128 271.786667V513.706667a40.533333 40.533333 0 0 0 40.533333 40.547555h105.102223z m40.817777-60.16a35.555556 35.555556 0 0 0-25.656889-10.951111H199.111111v-180.764445h80.696889a35.555556 35.555556 0 0 0 25.671111-10.951111l139.150222-145.166222V629.802667l-130.161777-135.708445z"  horiz-adv-x="1024" />

    
    <glyph glyph-name="low" unicode="&#58924;" d="M503.253333 311.096889h332.003556c9.998222 0 19.896889 4.152889 27.136 12.174222 7.879111 8.760889 10.168889 21.205333 8.035555 32.768L809.912889 685.226667a42.581333 42.581333 0 0 1-41.955556 34.858666H320.355556a42.666667 42.666667 0 0 1-42.666667-42.666666v-356.380445c0-6.513778 1.763556-12.899556 5.091555-18.488889 86.556444-145.408 139.178667-227.811556 157.866667-247.224889 1.422222-1.493333 5.404444-3.242667 9.429333-3.228444 4.024889 0.014222 8.106667 1.820444 9.102223 2.218667 28.003556 11.534222 90.453333 59.889778 44.074666 256.782222z m-357.148444 36.181333a36.181333 36.181333 0 0 1 36.181333-36.181333h2.830222a36.181333 36.181333 0 0 1 36.181334 36.181333v336.64a36.181333 36.181333 0 0 1-36.181334 36.167111h-2.844444a36.181333 36.181333 0 0 1-36.167111-36.167111v-336.64z"  horiz-adv-x="1024" />

    


  </font>
</defs>
</svg>
