<?xml version="1.0" encoding="UTF-8"?>
<svg width="72px" height="72px" viewBox="0 0 72 72" version="1.1" xmlns="http://www.w3.org/2000/svg" xmlns:xlink="http://www.w3.org/1999/xlink">
    <!-- Generator: Sketch 52.5 (67469) - http://www.bohemiancoding.com/sketch -->
    <title>xxhdpi/icon/like</title>
    <desc>Created with Sketch.</desc>
    <g id="icon/like" stroke="none" stroke-width="1" fill="none" fill-rule="evenodd">
        <path d="M44.5161562,46.6751776 C49.1347726,42.0567086 52.6917193,38.260286 54.6132163,35.806866 C58.3176264,31.0763556 58.2842263,24.918245 54.464753,21.0979897 C50.5018326,17.1350693 44.0850299,16.9576751 40.4645929,20.6644238 C40.3250564,20.807386 40.1798221,20.9650234 40.0307941,21.134805 C39.7161196,21.493301 39.4019592,21.8854856 39.107295,22.2784173 C38.9315675,22.5127481 38.8049091,22.6902941 38.74308,22.7804257 C37.7499568,24.2281551 35.6130831,24.2281551 34.6199599,22.7804257 C34.5581891,22.6903791 34.4315766,22.512919 34.2558684,22.2786773 C33.9612217,21.8858754 33.6470208,21.4938193 33.3322404,21.1354514 C33.1831689,20.9657379 33.0378776,20.8081668 32.8978658,20.6648527 C29.2778216,16.9577097 22.8611699,17.1351067 18.8982869,21.0979897 C15.0778718,24.9184048 15.0444731,31.0762485 18.7497259,35.8067411 C20.6713207,38.260286 24.2282673,42.0567086 28.8468837,46.6751776 C31.5424013,49.3706091 34.2750783,52.0247197 36.6815233,54.3186984 C39.0871275,52.0255299 41.8202273,49.3710205 44.5161562,46.6751776 Z M36.8870534,17.1714007 C42.5082346,11.4162093 52.1197535,11.6819223 58.0004679,17.5626367 C63.6961683,23.2595033 63.7449599,32.2554205 58.5497259,38.8897043 C56.4658996,41.5503908 52.8081439,45.4544095 48.0516337,50.2107679 C44.885347,53.3769535 41.6748958,56.4804917 38.9869485,59.0250931 C37.6924212,60.2529326 35.6706187,60.2529326 34.3778253,59.0267361 C31.6881442,56.4804917 28.4776929,53.3769535 25.3114062,50.2107679 C20.554896,45.4544095 16.8971404,41.5503908 14.8133893,38.8898004 C9.61702003,32.2556008 9.66581325,23.2593955 15.362753,17.5624558 C21.2433151,11.6818937 30.8549709,11.4161666 36.4747688,17.1711778 C36.5435038,17.2415339 36.612282,17.3133458 36.681101,17.3865579 C36.7497432,17.3134822 36.8183872,17.2417526 36.8870534,17.1714007 Z" id="Page-1" fill="#000000" fill-rule="nonzero"></path>
    </g>
</svg>