<?xml version="1.0" encoding="UTF-8"?>
<svg width="72px" height="72px" viewBox="0 0 72 72" version="1.1" xmlns="http://www.w3.org/2000/svg" xmlns:xlink="http://www.w3.org/1999/xlink">
    <!-- Generator: Sketch 52.5 (67469) - http://www.bohemiancoding.com/sketch -->
    <title>xxhdpi/icon/lock</title>
    <desc>Created with Sketch.</desc>
    <g id="icon/lock" stroke="none" stroke-width="1" fill="none" fill-rule="evenodd">
        <g id="Group" transform="translate(14.000000, 9.000000)" fill="#000000" fill-rule="nonzero">
            <path d="M38.553,26.5 L5.5,26.5 L5.5,45.285 L38.553,45.285 L38.553,26.5 Z M7.5,21.5 L7.5,14.939 C7.5,6.96447514 13.9641011,0.5 21.938,0.5 C29.9128379,0.5 36.378,6.9644141 36.378,14.939 L36.378,21.5 L40.724,21.5 C42.2867119,21.5 43.553,22.7662881 43.553,24.329 L43.553,47.455 C43.553,49.0168871 42.2875401,50.285 40.723,50.285 L3.329,50.285 C1.76811566,50.285 0.5,49.0195429 0.5,47.456 L0.5,24.329 C0.5,22.7654571 1.76811566,21.5 3.329,21.5 L7.5,21.5 Z M12.5,21.5 L31.378,21.5 L31.378,14.939 C31.378,9.72596737 27.1515436,5.5 21.938,5.5 C16.7255896,5.5 12.5,9.72583413 12.5,14.939 L12.5,21.5 Z M19.5,34 L19.5,37.116 C19.5,38.4967119 20.6192881,39.616 22,39.616 C23.3807119,39.616 24.5,38.4967119 24.5,37.116 L24.5,34 C24.5,32.6192881 23.3807119,31.5 22,31.5 C20.6192881,31.5 19.5,32.6192881 19.5,34 Z" id="Combined-Shape"></path>
        </g>
    </g>
</svg>