<?xml version="1.0" encoding="UTF-8"?>
<svg width="72px" height="72px" viewBox="0 0 72 72" version="1.1" xmlns="http://www.w3.org/2000/svg" xmlns:xlink="http://www.w3.org/1999/xlink">
    <!-- Generator: Sketch 52.5 (67469) - http://www.bohemiancoding.com/sketch -->
    <title>xxhdpi/icon/minimization</title>
    <desc>Created with Sketch.</desc>
    <g id="icon/minimization" stroke="none" stroke-width="1" fill="none" fill-rule="evenodd">
        <path d="M23.7791149,43 L15.5,43 C14.1192881,43 13,41.8807119 13,40.5 C13,39.1192881 14.1192881,38 15.5,38 L31,38 C32.3807119,38 33.5,39.1192881 33.5,40.5 L33.5,56.229 C33.5,57.6097119 32.3807119,58.729 31,58.729 C29.6192881,58.729 28.5,57.6097119 28.5,56.229 L28.5,45.3488586 L16.2687543,57.593779 C15.2929892,58.5706351 13.710077,58.5715194 12.733221,57.5957543 C11.7563649,56.6199892 11.7554806,55.037077 12.7312457,54.060221 L23.7791149,43 Z M45.131581,28.729 L55,28.729 C56.3807119,28.729 57.5,29.8482881 57.5,31.229 C57.5,32.6097119 56.3807119,33.729 55,33.729 L39.5,33.729 C38.1192881,33.729 37,32.6097119 37,31.229 L37,15.5 C37,14.1192881 38.1192881,13 39.5,13 C40.8807119,13 42,14.1192881 42,15.5 L42,24.7890888 L54.0433074,12.7331592 C55.0191066,11.7563372 56.6020189,11.7555082 57.5788408,12.7313074 C58.5556628,13.7071066 58.5564918,15.2900189 57.5806926,16.2668408 L45.131581,28.729 Z" id="Combined-Shape" fill="#000000" fill-rule="nonzero"></path>
    </g>
</svg>