<?xml version="1.0" encoding="UTF-8"?>
<svg width="72px" height="72px" viewBox="0 0 72 72" version="1.1" xmlns="http://www.w3.org/2000/svg" xmlns:xlink="http://www.w3.org/1999/xlink">
    <!-- Generator: Sketch 52.5 (67469) - http://www.bohemiancoding.com/sketch -->
    <title>xxhdpi/icon/read</title>
    <desc>Created with Sketch.</desc>
    <g id="icon/read" stroke="none" stroke-width="1" fill="none" fill-rule="evenodd">
        <g id="阅读" transform="translate(11.000000, 11.000000)">
            <rect id="Rectangle-2" fill="#D8D8D8" opacity="0" x="0" y="0" width="50" height="50"></rect>
            <path d="M25,41 C12.2974508,41 2,33.836556 2,25.4848485 C2,16.163444 12.2974508,9 25,9 C37.7025492,9 48,16.163444 48,25.4848485 C48,33.836556 37.7025492,41 25,41 Z M25,32 C28.8659932,32 32,28.8659932 32,25 C32,21.1340068 28.8659932,18 25,18 C21.1340068,18 18,21.1340068 18,25 C18,28.8659932 21.1340068,32 25,32 Z" id="Combined-Shape" fill="#000000"></path>
        </g>
    </g>
</svg>