<?xml version="1.0" encoding="UTF-8"?>
<svg width="72px" height="72px" viewBox="0 0 72 72" version="1.1" xmlns="http://www.w3.org/2000/svg" xmlns:xlink="http://www.w3.org/1999/xlink">
    <!-- Generator: Sketch 52.5 (67469) - http://www.bohemiancoding.com/sketch -->
    <title>xxhdpi/icon/scan</title>
    <desc>Created with Sketch.</desc>
    <g id="icon/scan" stroke="none" stroke-width="1" fill="none" fill-rule="evenodd">
        <path d="M45.5,13 L55.5,13 C57.8223893,13 60,15.0432134 60,17.5 L60,24.5 C60,25.8807119 58.8807119,27 57.5,27 C56.1192881,27 55,25.8807119 55,24.5 L55,19 C55,18.4477153 54.5522847,18 54,18 L45.5,18 L19,18 C18.4477153,18 18,18.4477153 18,19 L18,24.5 C18,25.8807119 16.8807119,27 15.5,27 C14.1192881,27 13,25.8807119 13,24.5 L13,17.5 C13,14.8381627 15.1388776,13 17.5,13 L45.5,13 Z M46,55.0500091 C46.161555,55.0172151 46.3287671,55 46.5,55 L54,55 C54.5522847,55 55,54.5522847 55,54 L55,47.5 C55,46.1192881 56.1192881,45 57.5,45 C58.8807119,45 60,46.1192881 60,47.5 L60,54.5 C60,57.4978817 58.2375951,60 55.5,60 L46.5,60 C46.3287671,60 46.161555,59.9827849 46,59.9499909 C45.838445,59.9827849 45.6712329,60 45.5,60 L17.5,60 C15.5348099,60 13,58.1043338 13,55.5 L13,47.5 C13,46.1192881 14.1192881,45 15.5,45 C16.8807119,45 18,46.1192881 18,47.5 L18,54 C18,54.5522847 18.4477153,55 19,55 L45.5,55 C45.6712329,55 45.838445,55.0172151 46,55.0500091 Z M15.5,39 C14.1192881,39 13,37.8807119 13,36.5 C13,35.1192881 14.1192881,34 15.5,34 L57.5,34 C58.8807119,34 60,35.1192881 60,36.5 C60,37.8807119 58.8807119,39 57.5,39 L15.5,39 Z" id="Combined-Shape" fill="#000000" fill-rule="nonzero"></path>
    </g>
</svg>