<?xml version="1.0" encoding="UTF-8"?>
<svg width="72px" height="72px" viewBox="0 0 72 72" version="1.1" xmlns="http://www.w3.org/2000/svg" xmlns:xlink="http://www.w3.org/1999/xlink">
    <!-- Generator: Sketch 52.5 (67469) - http://www.bohemiancoding.com/sketch -->
    <title>xxhdpi/icon/setting</title>
    <desc>Created with Sketch.</desc>
    <g id="icon/setting" stroke="none" stroke-width="1" fill="none" fill-rule="evenodd">
        <path d="M60.2144702,28.1981346 C61.0977723,28.4599537 61.7654929,29.1863609 61.952151,30.0885419 C62.3210695,31.8716479 62.509,33.693468 62.509,35.5350559 C62.509,37.3766439 62.3210695,39.1984639 61.952151,40.9815699 C61.7654291,41.8840594 61.0973245,42.6106283 60.2136285,42.8722267 C58.1193452,43.4921921 56.3452422,44.8655999 55.2383084,46.7826317 C54.1323772,48.6990277 53.8291774,50.9199307 54.3365328,53.042981 C54.5501335,53.9368022 54.2561258,54.8757544 53.5708993,55.488132 C50.8367624,57.9315928 47.6272067,59.792351 44.1303257,60.9444962 C43.2564808,61.2324088 42.2951147,61.0170809 41.6275715,60.3839263 C40.0432651,58.8812357 37.9674473,58.0320559 35.755,58.0320559 C33.5425585,58.0320559 31.4665327,58.8812381 29.8809712,60.38436 C29.213372,61.017248 28.2521362,61.2323726 27.3784536,60.9444235 C23.8818793,59.7920191 20.6715388,57.9309683 17.9381007,55.488132 C17.2528742,54.8757544 16.9588665,53.9368022 17.1724672,53.042981 C17.6800187,50.9191101 17.3772464,48.6983755 16.27237,46.7838065 C15.1640595,44.8656925 13.389622,43.4921824 11.2953715,42.8722267 C10.4116755,42.6106283 9.74357091,41.8840594 9.55684895,40.9815699 C9.18793046,39.1984639 9,37.3766439 9,35.5350559 C9,33.693468 9.18793046,31.8716479 9.55684895,30.0885419 C9.74350709,29.1863609 10.4112277,28.4599537 11.2945298,28.1981346 C13.3895448,27.5771523 15.1641006,26.2033483 16.2716916,24.2864802 C17.3772104,22.3707987 17.6800014,20.1501291 17.1725167,18.0273381 C16.9588221,17.1334608 17.2528172,16.1944084 17.9381007,15.5819799 C20.6715388,13.1391435 23.8818793,11.2780928 27.3784536,10.1256884 C28.2521362,9.83773923 29.213372,10.0528638 29.8809712,10.6857519 C31.4662677,12.1886226 33.5412493,13.0370559 35.755,13.0370559 C37.9681445,13.0370559 40.0440387,12.1883322 41.6290288,10.6857519 C42.296628,10.0528638 43.2578638,9.83773923 44.1315464,10.1256884 C47.6276231,11.2779288 50.8370455,13.138772 53.5708993,15.5819799 C54.2561828,16.1944084 54.5501779,17.1334608 54.3364833,18.0273381 C53.8291947,20.1493087 54.1324132,22.3701465 55.2379976,24.2859417 C56.3452012,26.2034411 58.1194223,27.5771425 60.2144702,28.1981346 Z M50.9076916,26.7856317 C49.4263092,24.2186407 48.8523793,21.2984447 49.1935283,18.4329375 C47.5697504,17.155029 45.7713723,16.1136008 43.8497235,15.3427516 C41.5375389,17.0730775 38.7201261,18.0370559 35.755,18.0370559 C32.7892606,18.0370559 29.9723846,17.0732256 27.660213,15.3427522 C25.738097,16.1137176 23.9392431,17.1552291 22.3155384,18.4329355 C22.6569518,21.2988044 22.0834434,24.2190692 20.60163,26.7868065 C19.1176462,29.3550851 16.8731549,31.3129589 14.2179707,32.4498858 C14.0732773,33.4668318 14,34.4967485 14,35.5350559 C14,36.5732176 14.0732567,37.6029909 14.2179098,38.6197978 C16.8729816,39.7560716 19.1176729,41.714073 20.6023084,44.2834802 C22.0836475,46.8503961 22.6570077,49.7706313 22.3154963,52.6371432 C23.9392064,53.9148604 25.738068,54.9563804 27.6601931,55.7273517 C29.9726385,53.9965651 32.7901069,53.0320559 35.755,53.0320559 C38.7199175,53.0320559 41.5374031,53.996594 43.8491852,55.727331 C45.7711899,54.9565304 47.5696703,53.915138 49.1935741,52.6371356 C48.8523469,49.7709506 49.4262583,46.8505594 50.9080024,44.2829417 C52.3911998,41.7142815 54.6357571,39.7561708 57.2910906,38.619795 C57.4357434,37.602989 57.509,36.5732166 57.509,35.5350559 C57.509,34.4967477 57.4357226,33.4668303 57.2910289,32.4498835 C54.6355615,31.3128198 52.3910736,29.3546118 50.9076916,26.7856317 Z M40.3468,35.5349559 C40.3468,32.9986678 38.2910881,30.9429559 35.7548,30.9429559 C33.2182121,30.9429559 31.1618,32.9989675 31.1618,35.5349559 C31.1618,38.0709443 33.2182121,40.1269559 35.7548,40.1269559 C38.2910881,40.1269559 40.3468,38.0712441 40.3468,35.5349559 Z M45.3468,35.5349559 C45.3468,40.8326678 41.0525119,45.1269559 35.7548,45.1269559 C30.4570064,45.1269559 26.1618,40.8325861 26.1618,35.5349559 C26.1618,30.2373258 30.4570064,25.9429559 35.7548,25.9429559 C41.0525119,25.9429559 45.3468,30.2372441 45.3468,35.5349559 Z" id="Stroke-1" fill="#000000" fill-rule="nonzero"></path>
    </g>
</svg>