<?xml version="1.0" encoding="UTF-8"?>
<svg width="118px" height="118px" viewBox="0 0 118 118" version="1.1" xmlns="http://www.w3.org/2000/svg" xmlns:xlink="http://www.w3.org/1999/xlink">
    <!-- Generator: Sketch 54.1 (76490) - https://sketchapp.com -->
    <title>Group 19</title>
    <desc>Created with Sketch.</desc>
    <defs>
        <filter x="-150.0%" y="-150.0%" width="400.0%" height="400.0%" filterUnits="objectBoundingBox" id="filter-1">
            <feGaussianBlur stdDeviation="20" in="SourceGraphic"></feGaussianBlur>
        </filter>
    </defs>
    <g id="控件" stroke="none" stroke-width="1" fill="none" fill-rule="evenodd">
        <g id="q13" transform="translate(10.000000, 10.000000)">
            <g id="Group-19">
                <rect id="Rectangle" fill-rule="nonzero" x="0" y="0" width="99" height="99"></rect>
                <circle id="Oval" fill-opacity="0.2" fill="#000000" filter="url(#filter-1)" cx="49" cy="49" r="20"></circle>
                <g id="Group-2-Copy-20" transform="translate(12.000000, 12.000000)">
                    <g id="分组-2">
                        <path d="M37,19.7333333 C27.4638105,19.7333333 19.7333333,27.4638884 19.7333333,37 C19.7333333,46.5361895 27.4638884,54.2666667 37,54.2666667 C46.5363453,54.2666667 54.2666667,46.5361895 54.2666667,37 C54.2666666,27.4638104 46.5363452,19.7333333 37,19.7333333 Z" id="形状" stroke="#FFFFFF" stroke-width="6" fill-rule="nonzero"></path>
                        <path d="M69.888789,41.1111111 C67.6182008,41.1111111 65.7778778,39.270133 65.7777778,37 C65.7777778,34.7299669 67.6182008,32.8889888 69.888789,32.8888889 C72.1593771,32.8888889 73.9998001,34.729867 74,37 C74,39.270133 72.1593771,41.1109111 69.888789,41.1111111 Z" id="路径" fill="#FFFFFF"></path>
                        <path d="M4.11101117,41.1111111 C1.840423,41.1111111 0.000100036437,39.270133 0,37 C0,34.7299669 1.840423,32.8889888 4.11101117,32.8888889 C6.38159935,32.8888889 8.22202234,34.729867 8.22222222,37 C8.22222222,39.270133 6.38159935,41.1109111 4.11101117,41.1111111 Z" id="路径备份" fill="#FFFFFF"></path>
                        <path d="M36.9999001,74 C34.7293119,74 32.8889889,72.1590219 32.8888889,69.8888889 C32.8888889,67.6188558 34.7293119,65.7778777 36.9999001,65.7777778 C39.2704882,65.7777778 41.1109112,67.6187558 41.1111111,69.8888889 C41.1111111,72.1590219 39.2704882,73.9998 36.9999001,74 Z" id="路径备份-3" fill="#FFFFFF" transform="translate(37.000000, 69.888889) rotate(-270.000000) translate(-37.000000, -69.888889) "></path>
                        <path d="M36.9999001,8.22222222 C34.7293119,8.22222222 32.8889889,6.38124415 32.8888889,4.11111111 C32.8888889,1.84107801 34.7293119,9.99363162e-05 36.9999001,-1.42108547e-14 C39.2704882,-1.42108547e-14 41.1109112,1.84097807 41.1111111,4.11111111 C41.1111111,6.38124415 39.2704882,8.22202225 36.9999001,8.22222222 Z" id="路径备份-2" fill="#FFFFFF" transform="translate(37.000000, 4.111111) rotate(-270.000000) translate(-37.000000, -4.111111) "></path>
                        <path d="M60.2558564,64.3670675 C57.9852682,64.3670675 56.1449453,62.5260894 56.1448452,60.2559564 C56.1448452,57.9859233 57.9852682,56.1449452 60.2558564,56.1448452 C62.5264446,56.1448452 64.3668676,57.9858233 64.3670675,60.2559564 C64.3670675,62.5260894 62.5264446,64.3668675 60.2558564,64.3670675 Z" id="路径备份-7" fill="#FFFFFF" transform="translate(60.255956, 60.255956) rotate(-315.000000) translate(-60.255956, -60.255956) "></path>
                        <path d="M13.7439437,17.8551548 C11.4733555,17.8551548 9.63303257,16.0141767 9.63293253,13.7440436 C9.63293253,11.4740105 11.4733555,9.63303247 13.7439437,9.63293253 C16.0145319,9.63293253 17.8549549,11.4739106 17.8551548,13.7440436 C17.8551548,16.0141767 16.0145319,17.8549548 13.7439437,17.8551548 Z" id="路径备份-6" fill="#FFFFFF" transform="translate(13.744044, 13.744044) rotate(-315.000000) translate(-13.744044, -13.744044) "></path>
                        <path d="M13.7439437,64.3670675 C11.4733555,64.3670675 9.63303257,62.5260894 9.63293253,60.2559564 C9.63293253,57.9859233 11.4733555,56.1449452 13.7439437,56.1448452 C16.0145319,56.1448452 17.8549549,57.9858233 17.8551548,60.2559564 C17.8551548,62.5260894 16.0145319,64.3668675 13.7439437,64.3670675 Z" id="路径备份-5" fill="#FFFFFF" transform="translate(13.744044, 60.255956) rotate(-225.000000) translate(-13.744044, -60.255956) "></path>
                        <path d="M60.2558564,17.8551548 C57.9852682,17.8551548 56.1449453,16.0141767 56.1448452,13.7440436 C56.1448452,11.4740105 57.9852682,9.63303247 60.2558564,9.63293253 C62.5264446,9.63293253 64.3668676,11.4739106 64.3670675,13.7440436 C64.3670675,16.0141767 62.5264446,17.8549548 60.2558564,17.8551548 Z" id="路径备份-4" fill="#FFFFFF" transform="translate(60.255956, 13.744044) rotate(-225.000000) translate(-60.255956, -13.744044) "></path>
                    </g>
                </g>
            </g>
        </g>
    </g>
</svg>