<?xml version="1.0" encoding="UTF-8"?>
<svg width="145px" height="193px" viewBox="0 0 145 193" version="1.1" xmlns="http://www.w3.org/2000/svg" xmlns:xlink="http://www.w3.org/1999/xlink">
    <!-- Generator: Sketch 54.1 (76490) - https://sketchapp.com -->
    <title>Combined Shape Copy 3</title>
    <desc>Created with Sketch.</desc>
    <defs>
        <linearGradient x1="52.5654082%" y1="96.7637247%" x2="58.1080784%" y2="0%" id="linearGradient-1">
            <stop stop-color="#FFFFFF" stop-opacity="0" offset="0%"></stop>
            <stop stop-color="#FFFFFF" stop-opacity="0.384867233" offset="26.083815%"></stop>
            <stop stop-color="#FFFFFF" offset="100%"></stop>
        </linearGradient>
    </defs>
    <g id="通用视频控件" stroke="none" stroke-width="1" fill="none" fill-rule="evenodd">
        <g id="全屏-新手引导1" transform="translate(-1098.000000, -392.000000)" fill="url(#linearGradient-1)">
            <g id="编组-copy" transform="translate(900.000000, 270.000000)">
                <g id="Group-45">
                    <path d="M287.843771,207.00641 L335.642603,230.049459 C341.444279,232.846354 344.323395,239.469677 342.410952,245.61985 L319.903795,318 L245.223217,312.0183 C239.445769,298.029459 235.221081,287.258143 232.549152,279.704352 C230.970723,275.28701 226.644901,268.233072 224.264293,264.207566 C220.033002,257.74692 217.850343,253.527061 210.909802,246.750384 C208.834373,244.196648 205.084381,239.197474 199.659826,231.752862 L199.659813,231.75287 C197.150445,228.309035 197.521862,223.550918 200.535228,220.538185 L200.535228,220.538185 C203.533937,217.540106 208.270771,217.176229 211.692211,219.681121 C219.315905,225.262527 225.712124,229.839824 230.880878,233.412993 C235.564032,236.650466 240.828675,239.844902 246.674806,242.996299 L246.674805,242.996301 C249.105555,244.306615 252.138287,243.39832 253.4486,240.96757 C253.792964,240.328743 253.994135,239.622608 254.038139,238.898211 L260.502591,132.481111 C260.860303,126.592502 265.740249,122 271.639712,122 L271.639712,122 C277.51967,122 282.364594,126.615018 282.650228,132.488035 L286.150081,204.449774 C286.203491,205.547963 286.853365,206.528952 287.843771,207.00641 Z" id="Combined-Shape-Copy-3"></path>
                </g>
            </g>
        </g>
    </g>
</svg>