<?xml version="1.0" encoding="UTF-8"?>
<svg width="118px" height="118px" viewBox="0 0 118 118" version="1.1" xmlns="http://www.w3.org/2000/svg" xmlns:xlink="http://www.w3.org/1999/xlink">
    <!-- Generator: Sketch 54.1 (76490) - https://sketchapp.com -->
    <title>Group 20</title>
    <desc>Created with Sketch.</desc>
    <defs>
        <filter x="-150.0%" y="-150.0%" width="400.0%" height="400.0%" filterUnits="objectBoundingBox" id="filter-1">
            <feGaussianBlur stdDeviation="20" in="SourceGraphic"></feGaussianBlur>
        </filter>
    </defs>
    <g id="控件" stroke="none" stroke-width="1" fill="none" fill-rule="evenodd">
        <g id="静音100*100" transform="translate(9.000000, 9.000000)">
            <g id="Group-20">
                <rect id="Rectangle" fill="#0F0F0F" fill-rule="nonzero" opacity="0" x="0" y="0" width="100" height="100"></rect>
                <circle id="Oval" fill-opacity="0.2" fill="#000000" filter="url(#filter-1)" cx="50" cy="50" r="20"></circle>
                <g id="Group" transform="translate(22.000000, 23.000000)" stroke="#FFFFFF" stroke-linecap="round" stroke-linejoin="round" stroke-width="6">
                    <g id="Group-19" transform="translate(49.000000, 20.000000)">
                        <path d="M15.8903042,0.887098524 L0.28058849,16.4434477" id="Line-10"></path>
                        <path d="M15.8903042,1.00099673 L0.28058849,16.5573459" id="Line-10-Copy" transform="translate(8.085446, 8.779171) scale(1, -1) translate(-8.085446, -8.779171) "></path>
                    </g>
                    <path d="M2.55795385e-13,18.5437682 L3.29514194e-13,36.0990883 C3.34098468e-13,38.5133616 1.95715524,40.4705168 4.37142857,40.4705168 L14.313825,40.4705168 L25.3111519,51.221938 C27.6129397,53.4722567 31.3031511,53.4305327 33.5534698,51.1287449 C34.6181564,50.0397069 35.2142857,48.5771931 35.2142857,47.0541825 L35.2142857,7.58867399 C35.2142857,4.36964288 32.6047454,1.76010256 29.3857143,1.76010256 C27.8627037,1.76010256 26.4001899,2.3562319 25.3111519,3.42091849 L14.313825,14.1723397 L4.37142857,14.1723397 C1.95715524,14.1723397 3.30106709e-13,16.1294949 3.30402372e-13,18.5437682 Z" id="Path-15"></path>
                </g>
            </g>
        </g>
    </g>
</svg>